<?xml version="1.0" encoding="UTF-8" standalone="no"?>
<!DOCTYPE svg PUBLIC "-//W3C//DTD SVG 1.1//EN"
 "http://www.w3.org/Graphics/SVG/1.1/DTD/svg11.dtd">
<!-- Generated by graphviz version 12.2.1 (20241206.2353)
 -->
<!-- Title: G Pages: 1 -->
<svg width="1289pt" height="1329pt"
 viewBox="0.00 0.00 1289.01 1329.44" xmlns="http://www.w3.org/2000/svg" xmlns:xlink="http://www.w3.org/1999/xlink">
<g id="graph0" class="graph" transform="scale(1 1) rotate(0) translate(4 1325.44)">
<title>G</title><style>.edge>path:hover{stroke-width:8}</style>
<polygon fill="white" stroke="none" points="-4,4 -4,-1325.44 1285.01,-1325.44 1285.01,4 -4,4"/>
<!-- app -->
<g id="node1" class="node">
<title>app</title><style>.edge>path:hover{stroke-width:8}</style>
<ellipse fill="#f91010" stroke="black" cx="27" cy="-127" rx="27" ry="18"/>
<text text-anchor="middle" x="27" y="-123.12" font-family="Helvetica,sans-Serif" font-size="10.00" fill="#ffffff">app</text>
</g>
<!-- main_py -->
<g id="node27" class="node">
<title>main_py</title><style>.edge>path:hover{stroke-width:8}</style>
<ellipse fill="#529999" stroke="black" cx="126" cy="-18" rx="29.88" ry="18"/>
<text text-anchor="middle" x="126" y="-14.12" font-family="Helvetica,sans-Serif" font-size="10.00" fill="#000000">main.py</text>
</g>
<!-- app&#45;&gt;main_py -->
<g id="edge1" class="edge">
<title>app&#45;&gt;main_py</title><style>.edge>path:hover{stroke-width:8}</style>
<path fill="none" stroke="black" d="M126,-72C128.18,-64.14 128.85,-55.36 128.79,-47.25"/>
<polygon fill="#f91010" stroke="black" points="132.3,-47.36 128.35,-37.53 125.31,-47.68 132.3,-47.36"/>
<path fill="none" stroke="black" d="M48.17,-115.64C76.9,-101.44 124.84,-77.2 126,-73"/>
</g>
<!-- app_cli -->
<g id="node2" class="node">
<title>app_cli</title><style>.edge>path:hover{stroke-width:8}</style>
<ellipse fill="#ce3b3b" stroke="black" cx="99" cy="-127" rx="27" ry="18"/>
<text text-anchor="middle" x="99" y="-123.12" font-family="Helvetica,sans-Serif" font-size="10.00" fill="#ffffff">app.cli</text>
</g>
<!-- app_cli&#45;&gt;main_py -->
<g id="edge2" class="edge">
<title>app_cli&#45;&gt;main_py</title><style>.edge>path:hover{stroke-width:8}</style>
<path fill="none" stroke="black" d="M109.31,-109.99C115.3,-99.82 122.36,-86.14 126,-73"/>
</g>
<!-- app_cli_commands -->
<g id="node3" class="node">
<title>app_cli_commands</title><style>.edge>path:hover{stroke-width:8}</style>
<ellipse fill="#6b2e2e" stroke="black" cx="154" cy="-210.52" rx="45.25" ry="29.52"/>
<text text-anchor="middle" x="154" y="-217.9" font-family="Helvetica,sans-Serif" font-size="10.00" fill="#ffffff">app.</text>
<text text-anchor="middle" x="154" y="-206.65" font-family="Helvetica,sans-Serif" font-size="10.00" fill="#ffffff">cli.</text>
<text text-anchor="middle" x="154" y="-195.4" font-family="Helvetica,sans-Serif" font-size="10.00" fill="#ffffff">commands</text>
</g>
<!-- app_cli_commands&#45;&gt;main_py -->
<g id="edge3" class="edge">
<title>app_cli_commands&#45;&gt;main_py</title><style>.edge>path:hover{stroke-width:8}</style>
<path fill="none" stroke="black" d="M149.04,-180.83C145.44,-160.68 140.29,-133.11 135,-109 131.47,-92.89 121.6,-88.89 126,-73"/>
</g>
<!-- app_cli_defaults -->
<g id="node4" class="node">
<title>app_cli_defaults</title><style>.edge>path:hover{stroke-width:8}</style>
<ellipse fill="#b83d3d" stroke="black" cx="186" cy="-400.61" rx="35.71" ry="29.52"/>
<text text-anchor="middle" x="186" y="-407.98" font-family="Helvetica,sans-Serif" font-size="10.00" fill="#ffffff">app.</text>
<text text-anchor="middle" x="186" y="-396.73" font-family="Helvetica,sans-Serif" font-size="10.00" fill="#ffffff">cli.</text>
<text text-anchor="middle" x="186" y="-385.48" font-family="Helvetica,sans-Serif" font-size="10.00" fill="#ffffff">defaults</text>
</g>
<!-- app_cli_defaults&#45;&gt;app_cli_commands -->
<g id="edge4" class="edge">
<title>app_cli_defaults&#45;&gt;app_cli_commands</title><style>.edge>path:hover{stroke-width:8}</style>
<path fill="none" stroke="black" d="M212.92,-381.07C240.73,-359.98 276.61,-325.98 250,-306.57"/>
<path fill="none" stroke="black" d="M250,-304.57C225.93,-287.01 201.87,-263.67 183.85,-244.76"/>
<polygon fill="#b83d3d" stroke="black" points="186.46,-242.42 177.06,-237.52 181.35,-247.21 186.46,-242.42"/>
</g>
<!-- app_cli_parsers -->
<g id="node6" class="node">
<title>app_cli_parsers</title><style>.edge>path:hover{stroke-width:8}</style>
<ellipse fill="#964040" stroke="black" cx="154" cy="-305.57" rx="34.12" ry="29.52"/>
<text text-anchor="middle" x="154" y="-312.94" font-family="Helvetica,sans-Serif" font-size="10.00" fill="#ffffff">app.</text>
<text text-anchor="middle" x="154" y="-301.69" font-family="Helvetica,sans-Serif" font-size="10.00" fill="#ffffff">cli.</text>
<text text-anchor="middle" x="154" y="-290.44" font-family="Helvetica,sans-Serif" font-size="10.00" fill="#ffffff">parsers</text>
</g>
<!-- app_cli_defaults&#45;&gt;app_cli_parsers -->
<g id="edge5" class="edge">
<title>app_cli_defaults&#45;&gt;app_cli_parsers</title><style>.edge>path:hover{stroke-width:8}</style>
<path fill="none" stroke="black" d="M176.4,-371.69C173.49,-363.24 170.25,-353.82 167.15,-344.81"/>
<polygon fill="#b83d3d" stroke="black" points="170.54,-343.89 163.98,-335.57 163.92,-346.17 170.54,-343.89"/>
</g>
<!-- app_cli_opts -->
<g id="node5" class="node">
<title>app_cli_opts</title><style>.edge>path:hover{stroke-width:8}</style>
<ellipse fill="#b03a3a" stroke="black" cx="55" cy="-400.61" rx="39.2" ry="18"/>
<text text-anchor="middle" x="55" y="-396.73" font-family="Helvetica,sans-Serif" font-size="10.00" fill="#ffffff">app.cli.opts</text>
</g>
<!-- app_cli_opts&#45;&gt;app_cli_commands -->
<g id="edge6" class="edge">
<title>app_cli_opts&#45;&gt;app_cli_commands</title><style>.edge>path:hover{stroke-width:8}</style>
<path fill="none" stroke="black" d="M49.79,-382.27C44.9,-362.32 40.3,-329.38 55,-306.57"/>
</g>
<!-- app_cli_opts&#45;&gt;app_cli_parsers -->
<g id="edge7" class="edge">
<title>app_cli_opts&#45;&gt;app_cli_parsers</title><style>.edge>path:hover{stroke-width:8}</style>
<path fill="none" stroke="black" d="M71.35,-384.24C85.41,-371.03 106.09,-351.6 123.24,-335.48"/>
<polygon fill="#b03a3a" stroke="black" points="125.34,-338.31 130.23,-328.91 120.54,-333.21 125.34,-338.31"/>
</g>
<!-- app_cli_parsers&#45;&gt;app_cli_commands -->
<g id="edge8" class="edge">
<title>app_cli_parsers&#45;&gt;app_cli_commands</title><style>.edge>path:hover{stroke-width:8}</style>
<path fill="none" stroke="black" d="M154,-275.64C154,-268.11 154,-259.86 154,-251.86"/>
<polygon fill="#964040" stroke="black" points="157.5,-251.95 154,-241.95 150.5,-251.95 157.5,-251.95"/>
</g>
<!-- app_db -->
<g id="node7" class="node">
<title>app_db</title><style>.edge>path:hover{stroke-width:8}</style>
<ellipse fill="#c24747" stroke="black" cx="177" cy="-487.7" rx="27" ry="18"/>
<text text-anchor="middle" x="177" y="-483.82" font-family="Helvetica,sans-Serif" font-size="10.00" fill="#ffffff">app.db</text>
</g>
<!-- app_db&#45;&gt;app_cli_commands -->
<g id="edge9" class="edge">
<title>app_db&#45;&gt;app_cli_commands</title><style>.edge>path:hover{stroke-width:8}</style>
<path fill="none" stroke="black" d="M194.36,-473.67C212.64,-458.68 240.11,-432.16 250,-401.61"/>
</g>
<!-- app_services -->
<g id="node16" class="node">
<title>app_services</title><style>.edge>path:hover{stroke-width:8}</style>
<ellipse fill="#723131" stroke="black" cx="403" cy="-400.61" rx="42.31" ry="18"/>
<text text-anchor="middle" x="403" y="-396.73" font-family="Helvetica,sans-Serif" font-size="10.00" fill="#ffffff">app.services</text>
</g>
<!-- app_db&#45;&gt;app_services -->
<g id="edge10" class="edge">
<title>app_db&#45;&gt;app_services</title><style>.edge>path:hover{stroke-width:8}</style>
<path fill="none" stroke="black" d="M196.45,-474.68C201.72,-471.68 207.49,-468.61 213,-466.13 260.84,-444.58 318.17,-426.05 357.25,-414.45"/>
<polygon fill="#c24747" stroke="black" points="358.2,-417.82 366.81,-411.65 356.23,-411.1 358.2,-417.82"/>
</g>
<!-- app_file_loader -->
<g id="node8" class="node">
<title>app_file_loader</title><style>.edge>path:hover{stroke-width:8}</style>
<ellipse fill="#a44646" stroke="black" cx="820" cy="-487.7" rx="42.6" ry="21.57"/>
<text text-anchor="middle" x="820" y="-489.45" font-family="Helvetica,sans-Serif" font-size="10.00" fill="#ffffff">app.</text>
<text text-anchor="middle" x="820" y="-478.2" font-family="Helvetica,sans-Serif" font-size="10.00" fill="#ffffff">file_loader</text>
</g>
<!-- app_file_loader&#45;&gt;app_cli_commands -->
<g id="edge11" class="edge">
<title>app_file_loader&#45;&gt;app_cli_commands</title><style>.edge>path:hover{stroke-width:8}</style>
<path fill="none" stroke="black" d="M891,-399.61C819.7,-274.57 366.28,-391.4 250,-306.57"/>
<path fill="none" stroke="black" d="M848.41,-471.36C874.31,-455.23 906.34,-428.52 891,-401.61"/>
</g>
<!-- app_filters -->
<g id="node9" class="node">
<title>app_filters</title><style>.edge>path:hover{stroke-width:8}</style>
<ellipse fill="#ac4949" stroke="black" cx="540" cy="-487.7" rx="34.76" ry="18"/>
<text text-anchor="middle" x="540" y="-483.82" font-family="Helvetica,sans-Serif" font-size="10.00" fill="#ffffff">app.filters</text>
</g>
<!-- app_filters&#45;&gt;app_services -->
<g id="edge12" class="edge">
<title>app_filters&#45;&gt;app_services</title><style>.edge>path:hover{stroke-width:8}</style>
<path fill="none" stroke="black" d="M518.29,-473.21C496.04,-459.4 461.18,-437.75 435.62,-421.87"/>
<polygon fill="#ac4949" stroke="black" points="437.61,-418.98 427.26,-416.68 433.91,-424.93 437.61,-418.98"/>
</g>
<!-- app_models -->
<g id="node10" class="node">
<title>app_models</title><style>.edge>path:hover{stroke-width:8}</style>
<ellipse fill="#f91010" stroke="black" cx="540" cy="-574.79" rx="39.2" ry="18"/>
<text text-anchor="middle" x="540" y="-570.91" font-family="Helvetica,sans-Serif" font-size="10.00" fill="#ffffff">app.models</text>
</g>
<!-- app_models&#45;&gt;app_cli_commands -->
<g id="edge13" class="edge">
<title>app_models&#45;&gt;app_cli_commands</title><style>.edge>path:hover{stroke-width:8}</style>
<path fill="none" stroke="black" d="M122,-486.7C115.84,-475.89 130.75,-473.18 141,-466.13 187.38,-434.22 232.66,-455.17 250,-401.61"/>
<path fill="none" stroke="black" d="M250,-399.61C262.74,-360.27 283.41,-330.94 250,-306.57"/>
</g>
<!-- app_models&#45;&gt;app_cli_defaults -->
<g id="edge14" class="edge">
<title>app_models&#45;&gt;app_cli_defaults</title><style>.edge>path:hover{stroke-width:8}</style>
<path fill="none" stroke="black" d="M122,-486.7C109.73,-464.78 128.52,-442.16 148.85,-425.75"/>
<polygon fill="#f91010" stroke="black" points="150.83,-428.65 156.68,-419.81 146.6,-423.07 150.83,-428.65"/>
</g>
<!-- app_models&#45;&gt;app_cli_opts -->
<g id="edge15" class="edge">
<title>app_models&#45;&gt;app_cli_opts</title><style>.edge>path:hover{stroke-width:8}</style>
<path fill="none" stroke="black" d="M122,-486.7C109.6,-464.55 91.65,-442.1 77.44,-425.82"/>
<polygon fill="#f91010" stroke="black" points="80.27,-423.73 71,-418.59 75.04,-428.39 80.27,-423.73"/>
<path fill="none" stroke="black" d="M501.27,-570.75C413.67,-563.37 203.14,-542.62 141,-509.26 130.04,-503.38 128.08,-499.56 122,-488.7"/>
</g>
<!-- app_models&#45;&gt;app_cli_parsers -->
<g id="edge16" class="edge">
<title>app_models&#45;&gt;app_cli_parsers</title><style>.edge>path:hover{stroke-width:8}</style>
<path fill="none" stroke="black" d="M122,-486.7C96.68,-441.48 116.63,-380.73 134.44,-342.61"/>
<polygon fill="#f91010" stroke="black" points="137.47,-344.38 138.7,-333.86 131.18,-341.32 137.47,-344.38"/>
</g>
<!-- app_models&#45;&gt;app_file_loader -->
<g id="edge17" class="edge">
<title>app_models&#45;&gt;app_file_loader</title><style>.edge>path:hover{stroke-width:8}</style>
<path fill="none" stroke="black" d="M573.45,-564.83C617.25,-552.95 696.3,-530.92 763,-509.26 767.16,-507.91 771.47,-506.46 775.77,-504.97"/>
<polygon fill="#f91010" stroke="black" points="776.67,-508.37 784.94,-501.74 774.34,-501.76 776.67,-508.37"/>
</g>
<!-- app_models&#45;&gt;app_filters -->
<g id="edge18" class="edge">
<title>app_models&#45;&gt;app_filters</title><style>.edge>path:hover{stroke-width:8}</style>
<path fill="none" stroke="black" d="M540,-556.57C540,-545.34 540,-530.41 540,-517.41"/>
<polygon fill="#f91010" stroke="black" points="543.5,-517.7 540,-507.7 536.5,-517.7 543.5,-517.7"/>
</g>
<!-- app_parser -->
<g id="node11" class="node">
<title>app_parser</title><style>.edge>path:hover{stroke-width:8}</style>
<ellipse fill="#ac4949" stroke="black" cx="356" cy="-487.7" rx="36.54" ry="18"/>
<text text-anchor="middle" x="356" y="-483.82" font-family="Helvetica,sans-Serif" font-size="10.00" fill="#ffffff">app.parser</text>
</g>
<!-- app_models&#45;&gt;app_parser -->
<g id="edge19" class="edge">
<title>app_models&#45;&gt;app_parser</title><style>.edge>path:hover{stroke-width:8}</style>
<path fill="none" stroke="black" d="M513.24,-561.41C481.36,-546.67 427.93,-521.96 392.33,-505.5"/>
<polygon fill="#f91010" stroke="black" points="393.82,-502.33 383.27,-501.31 390.88,-508.68 393.82,-502.33"/>
</g>
<!-- app_presenter -->
<g id="node12" class="node">
<title>app_presenter</title><style>.edge>path:hover{stroke-width:8}</style>
<ellipse fill="#a44646" stroke="black" cx="676" cy="-487.7" rx="44.53" ry="18"/>
<text text-anchor="middle" x="676" y="-483.82" font-family="Helvetica,sans-Serif" font-size="10.00" fill="#ffffff">app.presenter</text>
</g>
<!-- app_models&#45;&gt;app_presenter -->
<g id="edge20" class="edge">
<title>app_models&#45;&gt;app_presenter</title><style>.edge>path:hover{stroke-width:8}</style>
<path fill="none" stroke="black" d="M562.46,-559.73C584.44,-545.98 618.16,-524.88 643.15,-509.25"/>
<polygon fill="#f91010" stroke="black" points="644.69,-512.41 651.31,-504.14 640.98,-506.48 644.69,-512.41"/>
</g>
<!-- app_models&#45;&gt;app_services -->
<g id="edge21" class="edge">
<title>app_models&#45;&gt;app_services</title><style>.edge>path:hover{stroke-width:8}</style>
<path fill="none" stroke="black" d="M555.53,-558.07C575.35,-536.08 604.71,-495.5 584,-466.13 555.38,-425.55 498.85,-410.34 456.54,-404.73"/>
<polygon fill="#f91010" stroke="black" points="457.14,-401.27 446.8,-403.59 456.32,-408.23 457.14,-401.27"/>
</g>
<!-- app_sorters -->
<g id="node17" class="node">
<title>app_sorters</title><style>.edge>path:hover{stroke-width:8}</style>
<ellipse fill="#ac4949" stroke="black" cx="449" cy="-487.7" rx="38.31" ry="18"/>
<text text-anchor="middle" x="449" y="-483.82" font-family="Helvetica,sans-Serif" font-size="10.00" fill="#ffffff">app.sorters</text>
</g>
<!-- app_models&#45;&gt;app_sorters -->
<g id="edge22" class="edge">
<title>app_models&#45;&gt;app_sorters</title><style>.edge>path:hover{stroke-width:8}</style>
<path fill="none" stroke="black" d="M523.31,-558.18C509.46,-545.23 489.55,-526.61 473.82,-511.91"/>
<polygon fill="#f91010" stroke="black" points="476.39,-509.51 466.69,-505.24 471.6,-514.62 476.39,-509.51"/>
</g>
<!-- app_parser&#45;&gt;app_services -->
<g id="edge23" class="edge">
<title>app_parser&#45;&gt;app_services</title><style>.edge>path:hover{stroke-width:8}</style>
<path fill="none" stroke="black" d="M365.29,-469.89C371.85,-458 380.79,-441.82 388.32,-428.19"/>
<polygon fill="#ac4949" stroke="black" points="391.23,-430.15 393,-419.71 385.1,-426.77 391.23,-430.15"/>
</g>
<!-- app_presenter&#45;&gt;app_services -->
<g id="edge24" class="edge">
<title>app_presenter&#45;&gt;app_services</title><style>.edge>path:hover{stroke-width:8}</style>
<path fill="none" stroke="black" d="M643.32,-475.03C634.78,-472.05 625.56,-468.91 617,-466.13 559.07,-447.31 491.72,-427.31 448.29,-414.65"/>
<polygon fill="#a44646" stroke="black" points="449.27,-411.3 438.69,-411.87 447.32,-418.02 449.27,-411.3"/>
</g>
<!-- app_scraper -->
<g id="node13" class="node">
<title>app_scraper</title><style>.edge>path:hover{stroke-width:8}</style>
<ellipse fill="#ce3b3b" stroke="black" cx="262" cy="-487.7" rx="39.64" ry="18"/>
<text text-anchor="middle" x="262" y="-483.82" font-family="Helvetica,sans-Serif" font-size="10.00" fill="#ffffff">app.scraper</text>
</g>
<!-- app_scraper&#45;&gt;app_cli_commands -->
<g id="edge25" class="edge">
<title>app_scraper&#45;&gt;app_cli_commands</title><style>.edge>path:hover{stroke-width:8}</style>
<path fill="none" stroke="black" d="M255.21,-469.68C249.26,-452.22 242.6,-424.46 250,-401.61"/>
</g>
<!-- app_scraper&#45;&gt;app_services -->
<g id="edge26" class="edge">
<title>app_scraper&#45;&gt;app_services</title><style>.edge>path:hover{stroke-width:8}</style>
<path fill="none" stroke="black" d="M285.28,-472.65C308.21,-458.81 343.46,-437.54 369.42,-421.87"/>
<polygon fill="#ce3b3b" stroke="black" points="371.16,-424.91 377.91,-416.75 367.54,-418.92 371.16,-424.91"/>
</g>
<!-- app_scraper_driver -->
<g id="node14" class="node">
<title>app_scraper_driver</title><style>.edge>path:hover{stroke-width:8}</style>
<ellipse fill="#993333" stroke="black" cx="949" cy="-669.83" rx="35.71" ry="29.52"/>
<text text-anchor="middle" x="949" y="-677.2" font-family="Helvetica,sans-Serif" font-size="10.00" fill="#ffffff">app.</text>
<text text-anchor="middle" x="949" y="-665.95" font-family="Helvetica,sans-Serif" font-size="10.00" fill="#ffffff">scraper.</text>
<text text-anchor="middle" x="949" y="-654.7" font-family="Helvetica,sans-Serif" font-size="10.00" fill="#ffffff">driver</text>
</g>
<!-- app_scraper_driver&#45;&gt;app_cli_commands -->
<g id="edge27" class="edge">
<title>app_scraper_driver&#45;&gt;app_cli_commands</title><style>.edge>path:hover{stroke-width:8}</style>
<path fill="none" stroke="black" d="M948.31,-639.92C945.93,-588.63 935.56,-479.76 891,-401.61"/>
</g>
<!-- app_scraper_getters -->
<g id="node15" class="node">
<title>app_scraper_getters</title><style>.edge>path:hover{stroke-width:8}</style>
<ellipse fill="#9d4343" stroke="black" cx="813" cy="-574.79" rx="35.71" ry="29.52"/>
<text text-anchor="middle" x="813" y="-582.16" font-family="Helvetica,sans-Serif" font-size="10.00" fill="#ffffff">app.</text>
<text text-anchor="middle" x="813" y="-570.91" font-family="Helvetica,sans-Serif" font-size="10.00" fill="#ffffff">scraper.</text>
<text text-anchor="middle" x="813" y="-559.66" font-family="Helvetica,sans-Serif" font-size="10.00" fill="#ffffff">getters</text>
</g>
<!-- app_scraper_driver&#45;&gt;app_scraper_getters -->
<g id="edge28" class="edge">
<title>app_scraper_driver&#45;&gt;app_scraper_getters</title><style>.edge>path:hover{stroke-width:8}</style>
<path fill="none" stroke="black" d="M921.81,-650.22C901.05,-636.02 872.25,-616.32 849.49,-600.75"/>
<polygon fill="#993333" stroke="black" points="851.63,-597.97 841.4,-595.21 847.67,-603.75 851.63,-597.97"/>
</g>
<!-- app_scraper_getters&#45;&gt;app_services -->
<g id="edge29" class="edge">
<title>app_scraper_getters&#45;&gt;app_services</title><style>.edge>path:hover{stroke-width:8}</style>
<path fill="none" stroke="black" d="M795.66,-548.56C780.59,-527.07 759.58,-498.22 749,-488.7"/>
</g>
<!-- app_services&#45;&gt;app_cli_commands -->
<g id="edge30" class="edge">
<title>app_services&#45;&gt;app_cli_commands</title><style>.edge>path:hover{stroke-width:8}</style>
<path fill="none" stroke="black" d="M377.53,-385.86C346.47,-368.7 292.82,-337.8 250,-306.57"/>
</g>
<!-- app_sorters&#45;&gt;app_services -->
<g id="edge31" class="edge">
<title>app_sorters&#45;&gt;app_services</title><style>.edge>path:hover{stroke-width:8}</style>
<path fill="none" stroke="black" d="M439.91,-469.89C433.49,-458 424.74,-441.82 417.37,-428.19"/>
<polygon fill="#ac4949" stroke="black" points="420.62,-426.85 412.79,-419.72 414.47,-430.18 420.62,-426.85"/>
</g>
<!-- base -->
<g id="node18" class="node">
<title>base</title><style>.edge>path:hover{stroke-width:8}</style>
<ellipse fill="#c2a347" stroke="black" cx="1004" cy="-908.87" rx="27" ry="18"/>
<text text-anchor="middle" x="1004" y="-905" font-family="Helvetica,sans-Serif" font-size="10.00" fill="#000000">base</text>
</g>
<!-- base&#45;&gt;app_scraper_driver -->
<g id="edge32" class="edge">
<title>base&#45;&gt;app_scraper_driver</title><style>.edge>path:hover{stroke-width:8}</style>
<path fill="none" stroke="black" d="M1171,-824.35C1191.58,-739.86 1065.67,-697.19 994.83,-680.11"/>
<polygon fill="#c2a347" stroke="black" points="995.98,-676.78 985.44,-677.93 994.39,-683.6 995.98,-676.78"/>
<path fill="none" stroke="black" d="M1019.78,-893.77C1025.83,-888.8 1032.97,-883.44 1040,-879.35 1094.28,-847.75 1166.44,-888.99 1171,-826.35"/>
</g>
<!-- base_selenium -->
<g id="node19" class="node">
<title>base_selenium</title><style>.edge>path:hover{stroke-width:8}</style>
<ellipse fill="#c2a347" stroke="black" cx="1096" cy="-908.87" rx="46.74" ry="18"/>
<text text-anchor="middle" x="1096" y="-905" font-family="Helvetica,sans-Serif" font-size="10.00" fill="#000000">base.selenium</text>
</g>
<!-- base_selenium&#45;&gt;app_scraper_driver -->
<g id="edge33" class="edge">
<title>base_selenium&#45;&gt;app_scraper_driver</title><style>.edge>path:hover{stroke-width:8}</style>
<path fill="none" stroke="black" d="M1121.21,-893.43C1142.15,-879.39 1168.85,-855.89 1171,-826.35"/>
</g>
<!-- base_selenium_drivers -->
<g id="node20" class="node">
<title>base_selenium_drivers</title><style>.edge>path:hover{stroke-width:8}</style>
<ellipse fill="#c0a040" stroke="black" cx="1171" cy="-1003.92" rx="41.01" ry="29.52"/>
<text text-anchor="middle" x="1171" y="-1011.29" font-family="Helvetica,sans-Serif" font-size="10.00" fill="#000000">base.</text>
<text text-anchor="middle" x="1171" y="-1000.04" font-family="Helvetica,sans-Serif" font-size="10.00" fill="#000000">selenium.</text>
<text text-anchor="middle" x="1171" y="-988.79" font-family="Helvetica,sans-Serif" font-size="10.00" fill="#000000">drivers</text>
</g>
<!-- base_selenium_drivers&#45;&gt;app_scraper_driver -->
<g id="edge34" class="edge">
<title>base_selenium_drivers&#45;&gt;app_scraper_driver</title><style>.edge>path:hover{stroke-width:8}</style>
<path fill="none" stroke="black" d="M1168.45,-974.19C1167.43,-955.68 1167.25,-931.19 1171,-909.87"/>
</g>
<!-- base_selenium_interface -->
<g id="node21" class="node">
<title>base_selenium_interface</title><style>.edge>path:hover{stroke-width:8}</style>
<ellipse fill="#a48d46" stroke="black" cx="1240" cy="-908.87" rx="41.01" ry="29.52"/>
<text text-anchor="middle" x="1240" y="-916.25" font-family="Helvetica,sans-Serif" font-size="10.00" fill="#000000">base.</text>
<text text-anchor="middle" x="1240" y="-905" font-family="Helvetica,sans-Serif" font-size="10.00" fill="#000000">selenium.</text>
<text text-anchor="middle" x="1240" y="-893.75" font-family="Helvetica,sans-Serif" font-size="10.00" fill="#000000">interface</text>
</g>
<!-- base_selenium_drivers&#45;&gt;base_selenium_interface -->
<g id="edge35" class="edge">
<title>base_selenium_drivers&#45;&gt;base_selenium_interface</title><style>.edge>path:hover{stroke-width:8}</style>
<path fill="none" stroke="black" d="M1189.85,-977.49C1197.46,-967.23 1206.35,-955.24 1214.52,-944.23"/>
<polygon fill="#c0a040" stroke="black" points="1217.12,-946.6 1220.27,-936.48 1211.5,-942.43 1217.12,-946.6"/>
</g>
<!-- base_selenium_interface&#45;&gt;app_scraper_driver -->
<g id="edge36" class="edge">
<title>base_selenium_interface&#45;&gt;app_scraper_driver</title><style>.edge>path:hover{stroke-width:8}</style>
<path fill="none" stroke="black" d="M1209.18,-888.77C1189.93,-874.19 1169.12,-852.24 1171,-826.35"/>
</g>
<!-- click -->
<g id="node22" class="node">
<title>click</title><style>.edge>path:hover{stroke-width:8}</style>
<ellipse fill="#75c823" stroke="black" cx="419" cy="-1087.44" rx="27" ry="18"/>
<text text-anchor="middle" x="419" y="-1083.56" font-family="Helvetica,sans-Serif" font-size="10.00" fill="#000000">click</text>
</g>
<!-- typer -->
<g id="node29" class="node">
<title>typer</title><style>.edge>path:hover{stroke-width:8}</style>
<polygon fill="blue" stroke="black" points="422,-687.83 368,-687.83 368,-651.83 422,-651.83 422,-687.83"/>
<text text-anchor="middle" x="395" y="-665.95" font-family="Helvetica,sans-Serif" font-size="10.00" fill="white">typer</text>
</g>
<!-- click&#45;&gt;typer -->
<g id="edge37" class="edge">
<title>click&#45;&gt;typer</title><style>.edge>path:hover{stroke-width:8}</style>
<path fill="none" stroke="black" d="M422.4,-1069.17C425.76,-1052.6 431.22,-1026.93 437,-1004.92"/>
<path fill="none" stroke="black" d="M395,-824.35C376.97,-786.25 327.57,-796.37 331,-754.35"/>
<path fill="none" stroke="black" d="M437,-907.87C434.57,-867.19 412.44,-863.19 395,-826.35"/>
<path fill="none" stroke="black" d="M437,-1002.92C447.5,-962.92 439.46,-951.15 437,-909.87"/>
</g>
<!-- typer_main -->
<g id="node31" class="node">
<title>typer_main</title><style>.edge>path:hover{stroke-width:8}</style>
<polygon fill="blue" stroke="black" points="526.5,-926.87 465.5,-926.87 465.5,-890.87 526.5,-890.87 526.5,-926.87"/>
<text text-anchor="middle" x="496" y="-905" font-family="Helvetica,sans-Serif" font-size="10.00" fill="white">typer.main</text>
</g>
<!-- click&#45;&gt;typer_main -->
<g id="edge38" class="edge">
<title>click&#45;&gt;typer_main</title><style>.edge>path:hover{stroke-width:8}</style>
<path fill="none" stroke="black" d="M437,-1002.92C443.57,-977.87 459.7,-953.29 473.43,-935.69"/>
<polygon fill="#75c823" stroke="black" points="475.81,-938.31 479.38,-928.33 470.37,-933.91 475.81,-938.31"/>
</g>
<!-- typer_models -->
<g id="node32" class="node">
<title>typer_models</title><style>.edge>path:hover{stroke-width:8}</style>
<polygon fill="blue" stroke="black" points="494.75,-843.35 423.25,-843.35 423.25,-807.35 494.75,-807.35 494.75,-843.35"/>
<text text-anchor="middle" x="459" y="-821.48" font-family="Helvetica,sans-Serif" font-size="10.00" fill="white">typer.models</text>
</g>
<!-- click&#45;&gt;typer_models -->
<g id="edge39" class="edge">
<title>click&#45;&gt;typer_models</title><style>.edge>path:hover{stroke-width:8}</style>
<path fill="none" stroke="black" d="M437,-907.87C435.91,-889.62 441.11,-869.8 446.72,-854.28"/>
<polygon fill="#75c823" stroke="black" points="449.88,-855.81 450.25,-845.22 443.35,-853.27 449.88,-855.81"/>
</g>
<!-- typer_params -->
<g id="node33" class="node">
<title>typer_params</title><style>.edge>path:hover{stroke-width:8}</style>
<polygon fill="blue" stroke="black" points="431.12,-771.35 358.88,-771.35 358.88,-735.35 431.12,-735.35 431.12,-771.35"/>
<text text-anchor="middle" x="395" y="-749.48" font-family="Helvetica,sans-Serif" font-size="10.00" fill="white">typer.params</text>
</g>
<!-- click&#45;&gt;typer_params -->
<g id="edge40" class="edge">
<title>click&#45;&gt;typer_params</title><style>.edge>path:hover{stroke-width:8}</style>
<path fill="none" stroke="black" d="M395,-824.35C388.99,-811.65 388.41,-796.15 389.58,-782.96"/>
<polygon fill="#75c823" stroke="black" points="393.03,-783.51 390.84,-773.15 386.09,-782.62 393.03,-783.51"/>
</g>
<!-- click_exceptions -->
<g id="node23" class="node">
<title>click_exceptions</title><style>.edge>path:hover{stroke-width:8}</style>
<polygon fill="blue" stroke="black" points="493.62,-1321.44 430.38,-1321.44 430.38,-1285.44 493.62,-1285.44 493.62,-1321.44"/>
<text text-anchor="middle" x="462" y="-1305.19" font-family="Helvetica,sans-Serif" font-size="10.00" fill="white">click.</text>
<text text-anchor="middle" x="462" y="-1293.94" font-family="Helvetica,sans-Serif" font-size="10.00" fill="white">exceptions</text>
</g>
<!-- click_exceptions&#45;&gt;click -->
<g id="edge41" class="edge">
<title>click_exceptions&#45;&gt;click</title><style>.edge>path:hover{stroke-width:8}</style>
<path fill="none" stroke="black" d="M447.26,-1285.3C439.38,-1275.39 430.08,-1262.34 424,-1249.44 409.9,-1219.49 409.26,-1210.26 405,-1177.44 402.94,-1161.57 402.94,-1157.3 405,-1141.44 406.07,-1133.19 408.04,-1124.41 410.17,-1116.4"/>
<polygon fill="blue" stroke="black" points="413.52,-1117.43 412.91,-1106.85 406.79,-1115.51 413.52,-1117.43"/>
</g>
<!-- click_termui -->
<g id="node24" class="node">
<title>click_termui</title><style>.edge>path:hover{stroke-width:8}</style>
<ellipse fill="#7ab83d" stroke="black" cx="487" cy="-1159.44" rx="39.2" ry="18"/>
<text text-anchor="middle" x="487" y="-1155.56" font-family="Helvetica,sans-Serif" font-size="10.00" fill="#000000">click.termui</text>
</g>
<!-- click_exceptions&#45;&gt;click_termui -->
<g id="edge42" class="edge">
<title>click_exceptions&#45;&gt;click_termui</title><style>.edge>path:hover{stroke-width:8}</style>
<path fill="none" stroke="black" d="M493.97,-1291.1C518.03,-1280.37 548.02,-1261.52 555,-1232.44"/>
<path fill="none" stroke="black" d="M555,-1230.44C560.18,-1208.83 542.21,-1190.99 523.45,-1178.73"/>
<polygon fill="blue" stroke="black" points="525.35,-1175.79 514.98,-1173.62 521.73,-1181.78 525.35,-1175.79"/>
</g>
<!-- click_utils -->
<g id="node25" class="node">
<title>click_utils</title><style>.edge>path:hover{stroke-width:8}</style>
<polygon fill="blue" stroke="black" points="490.62,-1249.44 433.38,-1249.44 433.38,-1213.44 490.62,-1213.44 490.62,-1249.44"/>
<text text-anchor="middle" x="462" y="-1227.56" font-family="Helvetica,sans-Serif" font-size="10.00" fill="white">click.utils</text>
</g>
<!-- click_exceptions&#45;&gt;click_utils -->
<g id="edge43" class="edge">
<title>click_exceptions&#45;&gt;click_utils</title><style>.edge>path:hover{stroke-width:8}</style>
<path fill="none" stroke="black" d="M462,-1273.68C462,-1269.45 462,-1265.1 462,-1260.87"/>
<polygon fill="blue" stroke="black" points="458.5,-1273.62 462,-1283.62 465.5,-1273.62 458.5,-1273.62"/>
<polygon fill="blue" stroke="black" points="465.5,-1261.06 462,-1251.06 458.5,-1261.06 465.5,-1261.06"/>
</g>
<!-- click_exceptions&#45;&gt;typer -->
<g id="edge44" class="edge">
<title>click_exceptions&#45;&gt;typer</title><style>.edge>path:hover{stroke-width:8}</style>
<path fill="none" stroke="black" d="M555,-1230.44C569.72,-1169.07 538.84,-1149.44 555,-1088.44"/>
</g>
<!-- click_termui&#45;&gt;click -->
<g id="edge45" class="edge">
<title>click_termui&#45;&gt;click</title><style>.edge>path:hover{stroke-width:8}</style>
<path fill="none" stroke="black" d="M471.57,-1142.55C462.51,-1133.23 450.91,-1121.28 440.91,-1110.99"/>
<polygon fill="#7ab83d" stroke="black" points="443.51,-1108.65 434.04,-1103.92 438.49,-1113.53 443.51,-1108.65"/>
</g>
<!-- click_termui&#45;&gt;typer -->
<g id="edge46" class="edge">
<title>click_termui&#45;&gt;typer</title><style>.edge>path:hover{stroke-width:8}</style>
<path fill="none" stroke="black" d="M555,-1086.44C580.29,-973.64 535.47,-940.28 555,-826.35"/>
<path fill="none" stroke="black" d="M509.67,-1144.52C526.85,-1132.29 548.58,-1112.68 555,-1088.44"/>
</g>
<!-- click_utils&#45;&gt;click -->
<g id="edge47" class="edge">
<title>click_utils&#45;&gt;click</title><style>.edge>path:hover{stroke-width:8}</style>
<path fill="none" stroke="black" d="M419,-1158.44C412.71,-1145.77 412.14,-1130.15 413.39,-1116.89"/>
<polygon fill="blue" stroke="black" points="416.85,-1117.4 414.73,-1107.02 409.92,-1116.45 416.85,-1117.4"/>
</g>
<!-- click_utils&#45;&gt;click_termui -->
<g id="edge49" class="edge">
<title>click_utils&#45;&gt;click_termui</title><style>.edge>path:hover{stroke-width:8}</style>
<path fill="none" stroke="black" d="M468.18,-1213.13C470.87,-1205.59 474.1,-1196.56 477.11,-1188.12"/>
<polygon fill="blue" stroke="black" points="480.31,-1189.56 480.38,-1178.97 473.72,-1187.21 480.31,-1189.56"/>
</g>
<!-- click_utils&#45;&gt;typer -->
<g id="edge50" class="edge">
<title>click_utils&#45;&gt;typer</title><style>.edge>path:hover{stroke-width:8}</style>
<path fill="none" stroke="black" d="M331,-752.35C332.81,-730.11 347.89,-710.28 362.96,-695.75"/>
<polygon fill="blue" stroke="black" points="365.06,-698.57 370.12,-689.26 360.36,-693.38 365.06,-698.57"/>
<path fill="none" stroke="black" d="M419,-1158.44C406.34,-1132.93 393.35,-1131.97 383,-1105.44 325.69,-958.48 318.17,-911.57 331,-754.35"/>
<path fill="none" stroke="black" d="M449.44,-1213.05C439.99,-1199.32 427.3,-1179.38 419,-1160.44"/>
</g>
<!-- fake_useragent -->
<g id="node26" class="node">
<title>fake_useragent</title><style>.edge>path:hover{stroke-width:8}</style>
<ellipse fill="#33cc59" stroke="black" cx="1171" cy="-1231.44" rx="48.96" ry="18"/>
<text text-anchor="middle" x="1171" y="-1227.56" font-family="Helvetica,sans-Serif" font-size="10.00" fill="#000000">fake_useragent</text>
</g>
<!-- fake_useragent&#45;&gt;app_scraper_driver -->
<g id="edge51" class="edge">
<title>fake_useragent&#45;&gt;app_scraper_driver</title><style>.edge>path:hover{stroke-width:8}</style>
<path fill="none" stroke="black" d="M1171,-907.87C1177.28,-872.19 1168.37,-862.49 1171,-826.35"/>
<path fill="none" stroke="black" d="M1173.14,-1213.18C1176.01,-1186.24 1179.78,-1132.69 1171,-1088.44"/>
<path fill="none" stroke="black" d="M1171,-1086.44C1163.56,-1054.92 1132.96,-1063.53 1121,-1033.44 1111.31,-1009.05 1111.87,-999 1121,-974.39 1133.63,-940.38 1164.72,-945.6 1171,-909.87"/>
</g>
<!-- fake_useragent&#45;&gt;base_selenium_drivers -->
<g id="edge52" class="edge">
<title>fake_useragent&#45;&gt;base_selenium_drivers</title><style>.edge>path:hover{stroke-width:8}</style>
<path fill="none" stroke="black" d="M1171,-1086.44C1168.36,-1073.12 1167.7,-1058.34 1167.9,-1045.06"/>
<polygon fill="#33cc59" stroke="black" points="1171.39,-1045.48 1168.23,-1035.37 1164.39,-1045.25 1171.39,-1045.48"/>
</g>
<!-- rich -->
<g id="node28" class="node">
<title>rich</title><style>.edge>path:hover{stroke-width:8}</style>
<ellipse fill="#0c46f3" stroke="black" cx="949" cy="-1087.44" rx="27" ry="18"/>
<text text-anchor="middle" x="949" y="-1083.56" font-family="Helvetica,sans-Serif" font-size="10.00" fill="#ffffff">rich</text>
</g>
<!-- rich&#45;&gt;app_presenter -->
<g id="edge53" class="edge">
<title>rich&#45;&gt;app_presenter</title><style>.edge>path:hover{stroke-width:8}</style>
<path fill="none" stroke="black" d="M949,-1002.92C887.84,-910.92 986.01,-858.44 949,-754.35"/>
<path fill="none" stroke="black" d="M749,-573.79C736.57,-550.74 717.04,-528.41 701.31,-512.42"/>
<polygon fill="#0c46f3" stroke="black" points="704.12,-510.28 694.56,-505.73 699.19,-515.25 704.12,-510.28"/>
<path fill="none" stroke="black" d="M949,-752.35C927.56,-699.44 875.51,-736.31 832,-699.35 820.39,-689.49 822.49,-682.74 813,-670.83"/>
<path fill="none" stroke="black" d="M813,-668.83C781.74,-629.56 772.83,-619.96 749,-575.79"/>
</g>
<!-- rich&#45;&gt;app_scraper_driver -->
<g id="edge54" class="edge">
<title>rich&#45;&gt;app_scraper_driver</title><style>.edge>path:hover{stroke-width:8}</style>
<path fill="none" stroke="black" d="M949,-752.35C944.38,-739.36 943.28,-724.44 943.68,-710.95"/>
<polygon fill="#0c46f3" stroke="black" points="947.17,-711.25 944.29,-701.06 940.18,-710.83 947.17,-711.25"/>
</g>
<!-- rich&#45;&gt;app_scraper_getters -->
<g id="edge55" class="edge">
<title>rich&#45;&gt;app_scraper_getters</title><style>.edge>path:hover{stroke-width:8}</style>
<path fill="none" stroke="black" d="M813,-668.83C801.14,-653.93 800.2,-633.03 802.64,-614.81"/>
<polygon fill="#0c46f3" stroke="black" points="806.07,-615.55 804.33,-605.1 799.17,-614.35 806.07,-615.55"/>
</g>
<!-- rich&#45;&gt;app_services -->
<g id="edge56" class="edge">
<title>rich&#45;&gt;app_services</title><style>.edge>path:hover{stroke-width:8}</style>
<path fill="none" stroke="black" d="M749,-486.7C739.75,-478.37 740.86,-472.2 730,-466.13 642.87,-417.41 524.67,-405.05 456.84,-402.17"/>
<polygon fill="#0c46f3" stroke="black" points="457.23,-398.68 447.11,-401.82 456.97,-405.68 457.23,-398.68"/>
<path fill="none" stroke="black" d="M749,-573.79C731.04,-540.5 777.11,-513.99 749,-488.7"/>
</g>
<!-- rich&#45;&gt;typer_main -->
<g id="edge57" class="edge">
<title>rich&#45;&gt;typer_main</title><style>.edge>path:hover{stroke-width:8}</style>
<path fill="none" stroke="black" d="M949,-1002.92C903.52,-934.51 641.35,-916.02 537.93,-911.35"/>
<polygon fill="#0c46f3" stroke="black" points="538.36,-907.86 528.22,-910.93 538.06,-914.85 538.36,-907.86"/>
<path fill="none" stroke="black" d="M954.06,-1069.58C958.28,-1051.92 961.77,-1024.13 949,-1004.92"/>
</g>
<!-- typer&#45;&gt;app_cli_commands -->
<g id="edge58" class="edge">
<title>typer&#45;&gt;app_cli_commands</title><style>.edge>path:hover{stroke-width:8}</style>
<path fill="none" stroke="black" d="M367.68,-666.75C291.48,-659.24 80.52,-626.13 55,-488.7"/>
<path fill="none" stroke="black" d="M55,-304.57C71.02,-279.69 95.11,-256.86 115.52,-240.03"/>
<polygon fill="blue" stroke="black" points="117.52,-242.91 123.12,-233.92 113.13,-237.46 117.52,-242.91"/>
<path fill="none" stroke="black" d="M55,-486.7C39.91,-457.38 18.36,-461.08 7,-430.13 -2.04,-405.5 -1.25,-396 7,-371.09 18.24,-337.16 35.64,-336.61 55,-306.57"/>
</g>
<!-- typer&#45;&gt;app_cli_opts -->
<g id="edge59" class="edge">
<title>typer&#45;&gt;app_cli_opts</title><style>.edge>path:hover{stroke-width:8}</style>
<path fill="none" stroke="black" d="M55,-486.7C51.55,-468.11 51.55,-446.85 52.41,-430.23"/>
<polygon fill="blue" stroke="black" points="55.88,-430.77 53.05,-420.56 48.9,-430.31 55.88,-430.77"/>
</g>
<!-- typer_colors -->
<g id="node30" class="node">
<title>typer_colors</title><style>.edge>path:hover{stroke-width:8}</style>
<ellipse fill="#8553b6" stroke="black" cx="488" cy="-753.35" rx="39.2" ry="18"/>
<text text-anchor="middle" x="488" y="-749.48" font-family="Helvetica,sans-Serif" font-size="10.00" fill="#ffffff">typer.colors</text>
</g>
<!-- typer_colors&#45;&gt;typer -->
<g id="edge60" class="edge">
<title>typer_colors&#45;&gt;typer</title><style>.edge>path:hover{stroke-width:8}</style>
<path fill="none" stroke="black" d="M470.51,-737.02C457.22,-725.37 438.68,-709.12 423.3,-695.63"/>
<polygon fill="#8553b6" stroke="black" points="425.63,-693.03 415.81,-689.07 421.02,-698.29 425.63,-693.03"/>
</g>
<!-- typer_main&#45;&gt;typer -->
<g id="edge61" class="edge">
<title>typer_main&#45;&gt;typer</title><style>.edge>path:hover{stroke-width:8}</style>
<path fill="none" stroke="black" d="M555,-824.35C560.26,-793.69 562.72,-784.49 555,-754.35"/>
<path fill="none" stroke="black" d="M516,-890.5C531.34,-875.41 550.6,-852.01 555,-826.35"/>
</g>
<!-- typer_main&#45;&gt;typer_models -->
<g id="edge62" class="edge">
<title>typer_main&#45;&gt;typer_models</title><style>.edge>path:hover{stroke-width:8}</style>
<path fill="none" stroke="black" d="M483.56,-880.47C479.67,-871.9 475.38,-862.45 471.49,-853.87"/>
<polygon fill="blue" stroke="black" points="480.21,-881.55 487.53,-889.21 486.58,-878.65 480.21,-881.55"/>
<polygon fill="blue" stroke="black" points="474.78,-852.65 467.46,-844.99 468.41,-855.55 474.78,-852.65"/>
</g>
<!-- typer_models&#45;&gt;typer -->
<g id="edge63" class="edge">
<title>typer_models&#45;&gt;typer</title><style>.edge>path:hover{stroke-width:8}</style>
<path fill="none" stroke="black" d="M495.16,-814.92C525.59,-804.7 562.99,-785.52 555,-754.35"/>
<path fill="none" stroke="black" d="M555,-752.35C541.96,-701.45 476.73,-682.24 433.69,-675.05"/>
<polygon fill="blue" stroke="black" points="434.38,-671.61 423.97,-673.59 433.34,-678.54 434.38,-671.61"/>
</g>
<!-- typer_models&#45;&gt;typer_params -->
<g id="edge65" class="edge">
<title>typer_models&#45;&gt;typer_params</title><style>.edge>path:hover{stroke-width:8}</style>
<path fill="none" stroke="black" d="M443.18,-807.05C435.66,-798.82 426.53,-788.83 418.24,-779.77"/>
<polygon fill="blue" stroke="black" points="420.99,-777.59 411.66,-772.57 415.82,-782.31 420.99,-777.59"/>
</g>
<!-- typer_params&#45;&gt;typer -->
<g id="edge66" class="edge">
<title>typer_params&#45;&gt;typer</title><style>.edge>path:hover{stroke-width:8}</style>
<path fill="none" stroke="black" d="M395,-735.06C395,-724.69 395,-711.23 395,-699.32"/>
<polygon fill="blue" stroke="black" points="398.5,-699.61 395,-689.61 391.5,-699.61 398.5,-699.61"/>
</g>
<!-- yaml -->
<g id="node34" class="node">
<title>yaml</title><style>.edge>path:hover{stroke-width:8}</style>
<ellipse fill="#b6539d" stroke="black" cx="868" cy="-669.83" rx="27" ry="18"/>
<text text-anchor="middle" x="868" y="-665.95" font-family="Helvetica,sans-Serif" font-size="10.00" fill="#ffffff">yaml</text>
</g>
<!-- yaml&#45;&gt;app_file_loader -->
<g id="edge67" class="edge">
<title>yaml&#45;&gt;app_file_loader</title><style>.edge>path:hover{stroke-width:8}</style>
<path fill="none" stroke="black" d="M869.3,-651.48C870.53,-627.04 870.64,-581.43 858,-545.26 854.57,-535.44 849.01,-525.7 843.2,-517.13"/>
<polygon fill="#b6539d" stroke="black" points="846.2,-515.31 837.5,-509.25 840.52,-519.41 846.2,-515.31"/>
</g>
</g>
</svg>
