<?xml version="1.0" encoding="UTF-8" standalone="no"?>
<!DOCTYPE svg PUBLIC "-//W3C//DTD SVG 1.1//EN"
 "http://www.w3.org/Graphics/SVG/1.1/DTD/svg11.dtd">
<!-- Generated by graphviz version 12.2.1 (20241206.2353)
 -->
<!-- Title: G Pages: 1 -->
<svg width="1101pt" height="1007pt"
 viewBox="0.00 0.00 1101.09 1007.35" xmlns="http://www.w3.org/2000/svg" xmlns:xlink="http://www.w3.org/1999/xlink">
<g id="graph0" class="graph" transform="scale(1 1) rotate(0) translate(4 1003.35)">
<title>G</title><style>.edge>path:hover{stroke-width:8}</style>
<polygon fill="white" stroke="none" points="-4,4 -4,-1003.35 1097.09,-1003.35 1097.09,4 -4,4"/>
<!-- app -->
<g id="node1" class="node">
<title>app</title><style>.edge>path:hover{stroke-width:8}</style>
<ellipse fill="#f91010" stroke="black" cx="456.31" cy="-127" rx="27" ry="18"/>
<text text-anchor="middle" x="456.31" y="-123.12" font-family="Helvetica,sans-Serif" font-size="10.00" fill="#ffffff">app</text>
</g>
<!-- main_py -->
<g id="node22" class="node">
<title>main_py</title><style>.edge>path:hover{stroke-width:8}</style>
<ellipse fill="#569f9f" stroke="black" cx="492.31" cy="-18" rx="29.88" ry="18"/>
<text text-anchor="middle" x="492.31" y="-14.12" font-family="Helvetica,sans-Serif" font-size="10.00" fill="#000000">main.py</text>
</g>
<!-- app&#45;&gt;main_py -->
<g id="edge1" class="edge">
<title>app&#45;&gt;main_py</title><style>.edge>path:hover{stroke-width:8}</style>
<path fill="none" stroke="black" d="M472.2,-112.38C481.85,-102.55 492.31,-88.35 492.31,-73"/>
<path fill="none" stroke="black" d="M492.31,-72C492.31,-64.06 492.31,-55.44 492.31,-47.52"/>
<polygon fill="#f91010" stroke="black" points="495.81,-47.7 492.31,-37.7 488.81,-47.7 495.81,-47.7"/>
</g>
<!-- app_cli -->
<g id="node2" class="node">
<title>app_cli</title><style>.edge>path:hover{stroke-width:8}</style>
<ellipse fill="#8f3d3d" stroke="black" cx="528.31" cy="-127" rx="27" ry="18"/>
<text text-anchor="middle" x="528.31" y="-123.12" font-family="Helvetica,sans-Serif" font-size="10.00" fill="#ffffff">app.cli</text>
</g>
<!-- app_cli&#45;&gt;main_py -->
<g id="edge2" class="edge">
<title>app_cli&#45;&gt;main_py</title><style>.edge>path:hover{stroke-width:8}</style>
<path fill="none" stroke="black" d="M512.41,-112.38C502.77,-102.55 492.31,-88.35 492.31,-73"/>
</g>
<!-- app_db -->
<g id="node3" class="node">
<title>app_db</title><style>.edge>path:hover{stroke-width:8}</style>
<ellipse fill="#ac4949" stroke="black" cx="378.31" cy="-383.57" rx="27" ry="18"/>
<text text-anchor="middle" x="378.31" y="-379.69" font-family="Helvetica,sans-Serif" font-size="10.00" fill="#ffffff">app.db</text>
</g>
<!-- app_services -->
<g id="node11" class="node">
<title>app_services</title><style>.edge>path:hover{stroke-width:8}</style>
<ellipse fill="#813737" stroke="black" cx="458.31" cy="-308" rx="42.31" ry="18"/>
<text text-anchor="middle" x="458.31" y="-304.12" font-family="Helvetica,sans-Serif" font-size="10.00" fill="#ffffff">app.services</text>
</g>
<!-- app_db&#45;&gt;app_services -->
<g id="edge3" class="edge">
<title>app_db&#45;&gt;app_services</title><style>.edge>path:hover{stroke-width:8}</style>
<path fill="none" stroke="black" d="M393.73,-368.38C404.8,-358.21 419.96,-344.26 432.82,-332.44"/>
<polygon fill="#ac4949" stroke="black" points="435.16,-335.04 440.15,-325.69 430.42,-329.89 435.16,-335.04"/>
</g>
<!-- app_driver_interface -->
<g id="node4" class="node">
<title>app_driver_interface</title><style>.edge>path:hover{stroke-width:8}</style>
<ellipse fill="#993333" stroke="black" cx="161.31" cy="-462.7" rx="58.51" ry="21.57"/>
<text text-anchor="middle" x="161.31" y="-464.45" font-family="Helvetica,sans-Serif" font-size="10.00" fill="#ffffff">app.</text>
<text text-anchor="middle" x="161.31" y="-453.2" font-family="Helvetica,sans-Serif" font-size="10.00" fill="#ffffff">driver_interface</text>
</g>
<!-- app_driver_interface&#45;&gt;app_cli -->
<g id="edge4" class="edge">
<title>app_driver_interface&#45;&gt;app_cli</title><style>.edge>path:hover{stroke-width:8}</style>
<path fill="none" stroke="black" d="M61.31,-307C145.33,-244.14 470.32,-324.46 528.31,-237"/>
<path fill="none" stroke="black" d="M104.94,-456.44C71.17,-450.06 30.76,-436 9.31,-405.13 -18.41,-365.24 22.41,-338.1 61.31,-309"/>
<path fill="none" stroke="black" d="M528.31,-235C541.32,-215.37 541.75,-201.34 528.31,-182"/>
<path fill="none" stroke="black" d="M528.31,-181C523.33,-173.83 522.04,-164.7 522.39,-156.04"/>
<polygon fill="#993333" stroke="black" points="525.85,-156.59 523.51,-146.26 518.89,-155.79 525.85,-156.59"/>
</g>
<!-- app_scraper -->
<g id="node10" class="node">
<title>app_scraper</title><style>.edge>path:hover{stroke-width:8}</style>
<ellipse fill="#a44646" stroke="black" cx="161.31" cy="-383.57" rx="39.64" ry="18"/>
<text text-anchor="middle" x="161.31" y="-379.69" font-family="Helvetica,sans-Serif" font-size="10.00" fill="#ffffff">app.scraper</text>
</g>
<!-- app_driver_interface&#45;&gt;app_scraper -->
<g id="edge5" class="edge">
<title>app_driver_interface&#45;&gt;app_scraper</title><style>.edge>path:hover{stroke-width:8}</style>
<path fill="none" stroke="black" d="M161.31,-441.03C161.31,-432.53 161.31,-422.54 161.31,-413.34"/>
<polygon fill="#993333" stroke="black" points="164.81,-413.41 161.31,-403.41 157.81,-413.41 164.81,-413.41"/>
</g>
<!-- app_file_loader -->
<g id="node5" class="node">
<title>app_file_loader</title><style>.edge>path:hover{stroke-width:8}</style>
<ellipse fill="#a44646" stroke="black" cx="61.31" cy="-383.57" rx="42.6" ry="21.57"/>
<text text-anchor="middle" x="61.31" y="-385.32" font-family="Helvetica,sans-Serif" font-size="10.00" fill="#ffffff">app.</text>
<text text-anchor="middle" x="61.31" y="-374.07" font-family="Helvetica,sans-Serif" font-size="10.00" fill="#ffffff">file_loader</text>
</g>
<!-- app_file_loader&#45;&gt;app_cli -->
<g id="edge6" class="edge">
<title>app_file_loader&#45;&gt;app_cli</title><style>.edge>path:hover{stroke-width:8}</style>
<path fill="none" stroke="black" d="M53.71,-362.11C48.72,-344.7 45.66,-320.71 61.31,-309"/>
</g>
<!-- app_filters -->
<g id="node6" class="node">
<title>app_filters</title><style>.edge>path:hover{stroke-width:8}</style>
<ellipse fill="#ac4949" stroke="black" cx="458.31" cy="-383.57" rx="34.76" ry="18"/>
<text text-anchor="middle" x="458.31" y="-379.69" font-family="Helvetica,sans-Serif" font-size="10.00" fill="#ffffff">app.filters</text>
</g>
<!-- app_filters&#45;&gt;app_services -->
<g id="edge7" class="edge">
<title>app_filters&#45;&gt;app_services</title><style>.edge>path:hover{stroke-width:8}</style>
<path fill="none" stroke="black" d="M458.31,-365.13C458.31,-356.89 458.31,-346.83 458.31,-337.51"/>
<polygon fill="#ac4949" stroke="black" points="461.81,-337.82 458.31,-327.82 454.81,-337.82 461.81,-337.82"/>
</g>
<!-- app_models -->
<g id="node7" class="node">
<title>app_models</title><style>.edge>path:hover{stroke-width:8}</style>
<ellipse fill="#f91010" stroke="black" cx="579.31" cy="-462.7" rx="39.2" ry="18"/>
<text text-anchor="middle" x="579.31" y="-458.83" font-family="Helvetica,sans-Serif" font-size="10.00" fill="#ffffff">app.models</text>
</g>
<!-- app_models&#45;&gt;app_cli -->
<g id="edge8" class="edge">
<title>app_models&#45;&gt;app_cli</title><style>.edge>path:hover{stroke-width:8}</style>
<path fill="none" stroke="black" d="M585.6,-444.57C592.07,-424.55 600.28,-390.52 593.31,-362 578.44,-301.17 493.25,-288.89 528.31,-237"/>
</g>
<!-- app_models&#45;&gt;app_db -->
<g id="edge9" class="edge">
<title>app_models&#45;&gt;app_db</title><style>.edge>path:hover{stroke-width:8}</style>
<path fill="none" stroke="black" d="M550.54,-450.18C542.71,-447.14 534.21,-443.94 526.31,-441.13 477.02,-423.67 462.15,-426.22 414.31,-405.13 412.15,-404.18 409.95,-403.14 407.76,-402.03"/>
<polygon fill="#f91010" stroke="black" points="409.53,-399.01 399.06,-397.36 406.21,-405.18 409.53,-399.01"/>
</g>
<!-- app_models&#45;&gt;app_file_loader -->
<g id="edge10" class="edge">
<title>app_models&#45;&gt;app_file_loader</title><style>.edge>path:hover{stroke-width:8}</style>
<path fill="none" stroke="black" d="M539.92,-460.41C458.72,-457 267.33,-445.04 112.31,-405.13 109.33,-404.37 106.3,-403.47 103.27,-402.48"/>
<polygon fill="#f91010" stroke="black" points="104.45,-399.19 93.86,-399.13 102.1,-405.78 104.45,-399.19"/>
</g>
<!-- app_models&#45;&gt;app_filters -->
<g id="edge11" class="edge">
<title>app_models&#45;&gt;app_filters</title><style>.edge>path:hover{stroke-width:8}</style>
<path fill="none" stroke="black" d="M557.11,-447.55C538.03,-435.39 510.31,-417.72 489.08,-404.19"/>
<polygon fill="#f91010" stroke="black" points="491.14,-401.34 480.82,-398.92 487.38,-407.25 491.14,-401.34"/>
</g>
<!-- app_parser -->
<g id="node8" class="node">
<title>app_parser</title><style>.edge>path:hover{stroke-width:8}</style>
<ellipse fill="#a44646" stroke="black" cx="547.31" cy="-383.57" rx="36.54" ry="18"/>
<text text-anchor="middle" x="547.31" y="-379.69" font-family="Helvetica,sans-Serif" font-size="10.00" fill="#ffffff">app.parser</text>
</g>
<!-- app_models&#45;&gt;app_parser -->
<g id="edge12" class="edge">
<title>app_models&#45;&gt;app_parser</title><style>.edge>path:hover{stroke-width:8}</style>
<path fill="none" stroke="black" d="M572.21,-444.58C568.23,-435 563.18,-422.82 558.66,-411.94"/>
<polygon fill="#f91010" stroke="black" points="562.03,-410.93 554.97,-403.04 555.57,-413.61 562.03,-410.93"/>
</g>
<!-- app_presenter -->
<g id="node9" class="node">
<title>app_presenter</title><style>.edge>path:hover{stroke-width:8}</style>
<ellipse fill="#a44646" stroke="black" cx="685.31" cy="-383.57" rx="44.53" ry="18"/>
<text text-anchor="middle" x="685.31" y="-379.69" font-family="Helvetica,sans-Serif" font-size="10.00" fill="#ffffff">app.presenter</text>
</g>
<!-- app_models&#45;&gt;app_presenter -->
<g id="edge13" class="edge">
<title>app_models&#45;&gt;app_presenter</title><style>.edge>path:hover{stroke-width:8}</style>
<path fill="none" stroke="black" d="M599.24,-447.19C615.08,-435.67 637.46,-419.38 655.43,-406.31"/>
<polygon fill="#f91010" stroke="black" points="657.12,-409.41 663.15,-400.69 653,-403.75 657.12,-409.41"/>
</g>
<!-- app_models&#45;&gt;app_services -->
<g id="edge14" class="edge">
<title>app_models&#45;&gt;app_services</title><style>.edge>path:hover{stroke-width:8}</style>
<path fill="none" stroke="black" d="M551.29,-449.77C543.32,-446.66 534.56,-443.52 526.31,-441.13 446.26,-417.97 395.27,-469.46 342.31,-405.13 330.12,-390.33 331.94,-378.13 342.31,-362 356.94,-339.22 384.06,-326.11 408.4,-318.63"/>
<polygon fill="#f91010" stroke="black" points="409.18,-322.05 417.87,-315.98 407.3,-315.31 409.18,-322.05"/>
</g>
<!-- app_sorters -->
<g id="node12" class="node">
<title>app_sorters</title><style>.edge>path:hover{stroke-width:8}</style>
<ellipse fill="#ac4949" stroke="black" cx="257.31" cy="-383.57" rx="38.31" ry="18"/>
<text text-anchor="middle" x="257.31" y="-379.69" font-family="Helvetica,sans-Serif" font-size="10.00" fill="#ffffff">app.sorters</text>
</g>
<!-- app_models&#45;&gt;app_sorters -->
<g id="edge15" class="edge">
<title>app_models&#45;&gt;app_sorters</title><style>.edge>path:hover{stroke-width:8}</style>
<path fill="none" stroke="black" d="M551.34,-449.61C543.36,-446.5 534.59,-443.4 526.31,-441.13 432.02,-415.31 403.51,-431.26 309.31,-405.13 304.68,-403.85 299.89,-402.29 295.19,-400.62"/>
<polygon fill="#f91010" stroke="black" points="296.47,-397.36 285.88,-397.1 293.99,-403.91 296.47,-397.36"/>
</g>
<!-- app_parser&#45;&gt;app_services -->
<g id="edge16" class="edge">
<title>app_parser&#45;&gt;app_services</title><style>.edge>path:hover{stroke-width:8}</style>
<path fill="none" stroke="black" d="M529.3,-367.68C516.8,-357.35 499.91,-343.39 485.75,-331.68"/>
<polygon fill="#a44646" stroke="black" points="488.01,-329.01 478.07,-325.34 483.55,-334.4 488.01,-329.01"/>
</g>
<!-- app_presenter&#45;&gt;app_services -->
<g id="edge17" class="edge">
<title>app_presenter&#45;&gt;app_services</title><style>.edge>path:hover{stroke-width:8}</style>
<path fill="none" stroke="black" d="M651.32,-371.55C611.5,-358.65 545.43,-337.24 501.88,-323.12"/>
<polygon fill="#a44646" stroke="black" points="503.08,-319.83 492.49,-320.08 500.92,-326.49 503.08,-319.83"/>
</g>
<!-- app_scraper&#45;&gt;app_services -->
<g id="edge18" class="edge">
<title>app_scraper&#45;&gt;app_services</title><style>.edge>path:hover{stroke-width:8}</style>
<path fill="none" stroke="black" d="M188.44,-370.12C195.47,-367.19 203.09,-364.26 210.31,-362 277.34,-340.97 357.16,-325.57 407.79,-316.94"/>
<polygon fill="#a44646" stroke="black" points="408.29,-320.41 417.57,-315.3 407.13,-313.5 408.29,-320.41"/>
</g>
<!-- app_services&#45;&gt;app_cli -->
<g id="edge19" class="edge">
<title>app_services&#45;&gt;app_cli</title><style>.edge>path:hover{stroke-width:8}</style>
<path fill="none" stroke="black" d="M477.26,-291.66C492.61,-278.45 513.97,-258.22 528.31,-237"/>
</g>
<!-- app_sorters&#45;&gt;app_services -->
<g id="edge20" class="edge">
<title>app_sorters&#45;&gt;app_services</title><style>.edge>path:hover{stroke-width:8}</style>
<path fill="none" stroke="black" d="M285.85,-371.07C293.45,-368.07 301.67,-364.87 309.31,-362 345.02,-348.59 385.86,-334.13 415.73,-323.7"/>
<polygon fill="#ac4949" stroke="black" points="416.49,-327.14 424.79,-320.55 414.19,-320.53 416.49,-327.14"/>
</g>
<!-- base -->
<g id="node13" class="node">
<title>base</title><style>.edge>path:hover{stroke-width:8}</style>
<ellipse fill="#c2a347" stroke="black" cx="32.31" cy="-610.27" rx="27" ry="18"/>
<text text-anchor="middle" x="32.31" y="-606.39" font-family="Helvetica,sans-Serif" font-size="10.00" fill="#000000">base</text>
</g>
<!-- base&#45;&gt;app_driver_interface -->
<g id="edge21" class="edge">
<title>base&#45;&gt;app_driver_interface</title><style>.edge>path:hover{stroke-width:8}</style>
<path fill="none" stroke="black" d="M161.31,-537.27C164.93,-524.06 165.51,-509.02 164.97,-495.99"/>
<polygon fill="#c2a347" stroke="black" points="168.48,-495.96 164.32,-486.21 161.5,-496.43 168.48,-495.96"/>
<path fill="none" stroke="black" d="M53.58,-598.73C89.79,-580.65 159.71,-545.09 161.31,-539.27"/>
</g>
<!-- base_selenium -->
<g id="node14" class="node">
<title>base_selenium</title><style>.edge>path:hover{stroke-width:8}</style>
<ellipse fill="#c2a347" stroke="black" cx="124.31" cy="-610.27" rx="46.74" ry="18"/>
<text text-anchor="middle" x="124.31" y="-606.39" font-family="Helvetica,sans-Serif" font-size="10.00" fill="#000000">base.selenium</text>
</g>
<!-- base_selenium&#45;&gt;app_driver_interface -->
<g id="edge22" class="edge">
<title>base_selenium&#45;&gt;app_driver_interface</title><style>.edge>path:hover{stroke-width:8}</style>
<path fill="none" stroke="black" d="M135.81,-592.6C144.56,-578.94 155.97,-558.76 161.31,-539.27"/>
</g>
<!-- base_selenium_drivers -->
<g id="node15" class="node">
<title>base_selenium_drivers</title><style>.edge>path:hover{stroke-width:8}</style>
<ellipse fill="#c0a040" stroke="black" cx="199.31" cy="-788.83" rx="41.01" ry="29.52"/>
<text text-anchor="middle" x="199.31" y="-796.21" font-family="Helvetica,sans-Serif" font-size="10.00" fill="#000000">base.</text>
<text text-anchor="middle" x="199.31" y="-784.96" font-family="Helvetica,sans-Serif" font-size="10.00" fill="#000000">selenium.</text>
<text text-anchor="middle" x="199.31" y="-773.71" font-family="Helvetica,sans-Serif" font-size="10.00" fill="#000000">drivers</text>
</g>
<!-- base_selenium_drivers&#45;&gt;app_driver_interface -->
<g id="edge23" class="edge">
<title>base_selenium_drivers&#45;&gt;app_driver_interface</title><style>.edge>path:hover{stroke-width:8}</style>
<path fill="none" stroke="black" d="M199.31,-609.27C190.8,-574.91 151.95,-573.41 161.31,-539.27"/>
<path fill="none" stroke="black" d="M175.31,-764.71C165.21,-753.32 154.58,-738.73 149.31,-723.31 140.81,-698.48 139.62,-688.65 149.31,-664.27 161.26,-634.17 207.09,-642.7 199.31,-611.27"/>
</g>
<!-- base_selenium_interface -->
<g id="node16" class="node">
<title>base_selenium_interface</title><style>.edge>path:hover{stroke-width:8}</style>
<ellipse fill="#a48d46" stroke="black" cx="199.31" cy="-693.79" rx="41.01" ry="29.52"/>
<text text-anchor="middle" x="199.31" y="-701.16" font-family="Helvetica,sans-Serif" font-size="10.00" fill="#000000">base.</text>
<text text-anchor="middle" x="199.31" y="-689.91" font-family="Helvetica,sans-Serif" font-size="10.00" fill="#000000">selenium.</text>
<text text-anchor="middle" x="199.31" y="-678.66" font-family="Helvetica,sans-Serif" font-size="10.00" fill="#000000">interface</text>
</g>
<!-- base_selenium_drivers&#45;&gt;base_selenium_interface -->
<g id="edge24" class="edge">
<title>base_selenium_drivers&#45;&gt;base_selenium_interface</title><style>.edge>path:hover{stroke-width:8}</style>
<path fill="none" stroke="black" d="M199.31,-758.9C199.31,-751.38 199.31,-743.13 199.31,-735.13"/>
<polygon fill="#c0a040" stroke="black" points="202.81,-735.21 199.31,-725.21 195.81,-735.21 202.81,-735.21"/>
</g>
<!-- base_selenium_interface&#45;&gt;app_driver_interface -->
<g id="edge25" class="edge">
<title>base_selenium_interface&#45;&gt;app_driver_interface</title><style>.edge>path:hover{stroke-width:8}</style>
<path fill="none" stroke="black" d="M202.65,-664.09C203.66,-648.28 203.56,-628.44 199.31,-611.27"/>
</g>
<!-- click -->
<g id="node17" class="node">
<title>click</title><style>.edge>path:hover{stroke-width:8}</style>
<ellipse fill="#75c823" stroke="black" cx="933.31" cy="-610.27" rx="27" ry="18"/>
<text text-anchor="middle" x="933.31" y="-606.39" font-family="Helvetica,sans-Serif" font-size="10.00" fill="#000000">click</text>
</g>
<!-- typer -->
<g id="node24" class="node">
<title>typer</title><style>.edge>path:hover{stroke-width:8}</style>
<polygon fill="blue" stroke="black" points="848.31,-254 794.31,-254 794.31,-218 848.31,-218 848.31,-254"/>
<text text-anchor="middle" x="821.31" y="-232.12" font-family="Helvetica,sans-Serif" font-size="10.00" fill="white">typer</text>
</g>
<!-- click&#45;&gt;typer -->
<g id="edge26" class="edge">
<title>click&#45;&gt;typer</title><style>.edge>path:hover{stroke-width:8}</style>
<path fill="none" stroke="black" d="M885.31,-382.57C881.32,-350.11 894.36,-340.42 885.31,-309"/>
</g>
<!-- typer_main -->
<g id="node26" class="node">
<title>typer_main</title><style>.edge>path:hover{stroke-width:8}</style>
<polygon fill="blue" stroke="black" points="856.81,-480.7 795.81,-480.7 795.81,-444.7 856.81,-444.7 856.81,-480.7"/>
<text text-anchor="middle" x="826.31" y="-458.83" font-family="Helvetica,sans-Serif" font-size="10.00" fill="white">typer.main</text>
</g>
<!-- click&#45;&gt;typer_main -->
<g id="edge27" class="edge">
<title>click&#45;&gt;typer_main</title><style>.edge>path:hover{stroke-width:8}</style>
<path fill="none" stroke="black" d="M855.31,-537.27C845.94,-523.46 838.94,-506.19 834.16,-491.85"/>
<polygon fill="#75c823" stroke="black" points="837.57,-491.04 831.25,-482.54 830.89,-493.13 837.57,-491.04"/>
</g>
<!-- typer_models -->
<g id="node27" class="node">
<title>typer_models</title><style>.edge>path:hover{stroke-width:8}</style>
<polygon fill="blue" stroke="black" points="819.06,-401.57 747.56,-401.57 747.56,-365.57 819.06,-365.57 819.06,-401.57"/>
<text text-anchor="middle" x="783.31" y="-379.69" font-family="Helvetica,sans-Serif" font-size="10.00" fill="white">typer.models</text>
</g>
<!-- click&#45;&gt;typer_models -->
<g id="edge28" class="edge">
<title>click&#45;&gt;typer_models</title><style>.edge>path:hover{stroke-width:8}</style>
<path fill="none" stroke="black" d="M914.86,-596.81C897.37,-584.15 871.44,-563.06 855.31,-539.27"/>
<path fill="none" stroke="black" d="M855.31,-537.27C833.8,-505.55 804.81,-518.35 787.31,-484.27 776.06,-462.37 776.07,-434.06 778.3,-413.21"/>
<polygon fill="#75c823" stroke="black" points="781.76,-413.77 779.6,-403.39 774.82,-412.84 781.76,-413.77"/>
</g>
<!-- typer_params -->
<g id="node28" class="node">
<title>typer_params</title><style>.edge>path:hover{stroke-width:8}</style>
<polygon fill="blue" stroke="black" points="857.43,-326 785.18,-326 785.18,-290 857.43,-290 857.43,-326"/>
<text text-anchor="middle" x="821.31" y="-304.12" font-family="Helvetica,sans-Serif" font-size="10.00" fill="white">typer.params</text>
</g>
<!-- click&#45;&gt;typer_params -->
<g id="edge29" class="edge">
<title>click&#45;&gt;typer_params</title><style>.edge>path:hover{stroke-width:8}</style>
<path fill="none" stroke="black" d="M885.31,-382.57C881.4,-363.33 867.91,-346.43 854.31,-333.69"/>
<polygon fill="#75c823" stroke="black" points="856.88,-331.29 847.05,-327.32 852.26,-336.55 856.88,-331.29"/>
<path fill="none" stroke="black" d="M855.31,-537.27C842.4,-516.97 861.61,-507.86 866.31,-484.27 875.11,-440.03 894.28,-428.77 885.31,-384.57"/>
</g>
<!-- click_exceptions -->
<g id="node18" class="node">
<title>click_exceptions</title><style>.edge>path:hover{stroke-width:8}</style>
<polygon fill="blue" stroke="black" points="1026.93,-890.35 963.68,-890.35 963.68,-854.35 1026.93,-854.35 1026.93,-890.35"/>
<text text-anchor="middle" x="995.31" y="-874.1" font-family="Helvetica,sans-Serif" font-size="10.00" fill="white">click.</text>
<text text-anchor="middle" x="995.31" y="-862.85" font-family="Helvetica,sans-Serif" font-size="10.00" fill="white">exceptions</text>
</g>
<!-- click_exceptions&#45;&gt;click -->
<g id="edge30" class="edge">
<title>click_exceptions&#45;&gt;click</title><style>.edge>path:hover{stroke-width:8}</style>
<path fill="none" stroke="black" d="M979.88,-853.88C971.99,-844.07 962.9,-831.23 957.31,-818.35 931.45,-758.81 930.04,-681.04 931.52,-639.82"/>
<polygon fill="blue" stroke="black" points="935.01,-640.16 931.97,-630.01 928.02,-639.84 935.01,-640.16"/>
</g>
<!-- click_termui -->
<g id="node19" class="node">
<title>click_termui</title><style>.edge>path:hover{stroke-width:8}</style>
<ellipse fill="#7ab83d" stroke="black" cx="1019.31" cy="-693.79" rx="39.2" ry="18"/>
<text text-anchor="middle" x="1019.31" y="-689.91" font-family="Helvetica,sans-Serif" font-size="10.00" fill="#000000">click.termui</text>
</g>
<!-- click_exceptions&#45;&gt;click_termui -->
<g id="edge31" class="edge">
<title>click_exceptions&#45;&gt;click_termui</title><style>.edge>path:hover{stroke-width:8}</style>
<path fill="none" stroke="black" d="M1086.31,-787.83C1093.32,-759.74 1070.73,-733.53 1049.91,-716.13"/>
<polygon fill="blue" stroke="black" points="1052.1,-713.4 1042.08,-709.95 1047.76,-718.89 1052.1,-713.4"/>
<path fill="none" stroke="black" d="M1027.12,-855.78C1050.26,-842.17 1078.81,-819.88 1086.31,-789.83"/>
</g>
<!-- click_utils -->
<g id="node20" class="node">
<title>click_utils</title><style>.edge>path:hover{stroke-width:8}</style>
<polygon fill="blue" stroke="black" points="1023.93,-806.83 966.68,-806.83 966.68,-770.83 1023.93,-770.83 1023.93,-806.83"/>
<text text-anchor="middle" x="995.31" y="-784.96" font-family="Helvetica,sans-Serif" font-size="10.00" fill="white">click.utils</text>
</g>
<!-- click_exceptions&#45;&gt;click_utils -->
<g id="edge32" class="edge">
<title>click_exceptions&#45;&gt;click_utils</title><style>.edge>path:hover{stroke-width:8}</style>
<path fill="none" stroke="black" d="M995.31,-842.83C995.31,-834.92 995.31,-826.33 995.31,-818.42"/>
<polygon fill="blue" stroke="black" points="991.81,-842.55 995.31,-852.55 998.81,-842.55 991.81,-842.55"/>
<polygon fill="blue" stroke="black" points="998.81,-818.61 995.31,-808.61 991.81,-818.61 998.81,-818.61"/>
</g>
<!-- click_exceptions&#45;&gt;typer -->
<g id="edge33" class="edge">
<title>click_exceptions&#45;&gt;typer</title><style>.edge>path:hover{stroke-width:8}</style>
<path fill="none" stroke="black" d="M1086.31,-787.83C1099.77,-733.92 1091.19,-714.44 1067.31,-664.27 1053.65,-635.57 1019.31,-643.05 1019.31,-611.27"/>
</g>
<!-- click_termui&#45;&gt;click -->
<g id="edge34" class="edge">
<title>click_termui&#45;&gt;click</title><style>.edge>path:hover{stroke-width:8}</style>
<path fill="none" stroke="black" d="M1002.73,-677.07C989.59,-664.62 971.08,-647.07 956.47,-633.23"/>
<polygon fill="#7ab83d" stroke="black" points="959.16,-630.95 949.5,-626.61 954.35,-636.03 959.16,-630.95"/>
</g>
<!-- click_termui&#45;&gt;typer -->
<g id="edge35" class="edge">
<title>click_termui&#45;&gt;typer</title><style>.edge>path:hover{stroke-width:8}</style>
<path fill="none" stroke="black" d="M1019.31,-675.3C1019.31,-658.79 1019.31,-633.35 1019.31,-611.27"/>
</g>
<!-- click_utils&#45;&gt;click -->
<g id="edge36" class="edge">
<title>click_utils&#45;&gt;click</title><style>.edge>path:hover{stroke-width:8}</style>
<path fill="none" stroke="black" d="M982.57,-770.37C970.65,-752.43 954.37,-723.19 952.31,-694.79"/>
<path fill="none" stroke="black" d="M952.31,-692.79C950.99,-674.66 946.42,-654.78 942.1,-639.19"/>
<polygon fill="blue" stroke="black" points="945.48,-638.28 939.32,-629.66 938.76,-640.24 945.48,-638.28"/>
</g>
<!-- click_utils&#45;&gt;click_termui -->
<g id="edge38" class="edge">
<title>click_utils&#45;&gt;click_termui</title><style>.edge>path:hover{stroke-width:8}</style>
<path fill="none" stroke="black" d="M999.71,-770.77C1003.14,-757.47 1007.97,-738.73 1011.98,-723.18"/>
<polygon fill="blue" stroke="black" points="1015.36,-724.08 1014.47,-713.53 1008.59,-722.34 1015.36,-724.08"/>
</g>
<!-- click_utils&#45;&gt;typer -->
<g id="edge39" class="edge">
<title>click_utils&#45;&gt;typer</title><style>.edge>path:hover{stroke-width:8}</style>
<path fill="none" stroke="black" d="M952.31,-692.79C948.91,-646.01 1019.31,-658.17 1019.31,-611.27"/>
<path fill="none" stroke="black" d="M1019.31,-609.27C1019.31,-544.57 1019.31,-528.4 1019.31,-463.7 1019.31,-463.7 1019.31,-463.7 1019.31,-382.57 1019.31,-340.57 1028.71,-320.94 1000.31,-290 964.3,-250.78 900.79,-240.07 859.91,-237.43"/>
<polygon fill="blue" stroke="black" points="860.18,-233.94 850.02,-236.94 859.83,-240.93 860.18,-233.94"/>
</g>
<!-- fake_useragent -->
<g id="node21" class="node">
<title>fake_useragent</title><style>.edge>path:hover{stroke-width:8}</style>
<ellipse fill="#33cc59" stroke="black" cx="268.31" cy="-981.35" rx="48.96" ry="18"/>
<text text-anchor="middle" x="268.31" y="-977.48" font-family="Helvetica,sans-Serif" font-size="10.00" fill="#000000">fake_useragent</text>
</g>
<!-- fake_useragent&#45;&gt;app_driver_interface -->
<g id="edge40" class="edge">
<title>fake_useragent&#45;&gt;app_driver_interface</title><style>.edge>path:hover{stroke-width:8}</style>
<path fill="none" stroke="black" d="M268.31,-871.35C246.95,-781.43 287.32,-748.51 249.31,-664.27 235.99,-634.75 208.07,-642.44 199.31,-611.27"/>
</g>
<!-- fake_useragent&#45;&gt;base_selenium_drivers -->
<g id="edge41" class="edge">
<title>fake_useragent&#45;&gt;base_selenium_drivers</title><style>.edge>path:hover{stroke-width:8}</style>
<path fill="none" stroke="black" d="M270.35,-963.1C272.41,-941.79 274.49,-904.51 268.31,-873.35"/>
<path fill="none" stroke="black" d="M268.31,-871.35C263.47,-851 249.49,-832.74 235.37,-818.7"/>
<polygon fill="#33cc59" stroke="black" points="237.89,-816.27 228.21,-811.97 233.09,-821.37 237.89,-816.27"/>
</g>
<!-- rich -->
<g id="node23" class="node">
<title>rich</title><style>.edge>path:hover{stroke-width:8}</style>
<ellipse fill="#0c46f3" stroke="black" cx="685.31" cy="-610.27" rx="27" ry="18"/>
<text text-anchor="middle" x="685.31" y="-606.39" font-family="Helvetica,sans-Serif" font-size="10.00" fill="#ffffff">rich</text>
</g>
<!-- rich&#45;&gt;app_driver_interface -->
<g id="edge42" class="edge">
<title>rich&#45;&gt;app_driver_interface</title><style>.edge>path:hover{stroke-width:8}</style>
<path fill="none" stroke="black" d="M685.31,-537.27C662.3,-498.58 367.39,-476.01 230.4,-467.55"/>
<polygon fill="#0c46f3" stroke="black" points="230.93,-464.08 220.74,-466.97 230.51,-471.07 230.93,-464.08"/>
<path fill="none" stroke="black" d="M689.92,-592.15C692.95,-577.13 694.81,-555.25 685.31,-539.27"/>
</g>
<!-- rich&#45;&gt;app_parser -->
<g id="edge43" class="edge">
<title>rich&#45;&gt;app_parser</title><style>.edge>path:hover{stroke-width:8}</style>
<path fill="none" stroke="black" d="M685.31,-537.27C668.6,-509.16 696.78,-494.32 685.31,-463.7"/>
<path fill="none" stroke="black" d="M685.31,-461.7C670.97,-423.43 626.63,-403.59 592.04,-393.68"/>
<polygon fill="#0c46f3" stroke="black" points="593.22,-390.37 582.66,-391.19 591.43,-397.14 593.22,-390.37"/>
</g>
<!-- rich&#45;&gt;app_presenter -->
<g id="edge44" class="edge">
<title>rich&#45;&gt;app_presenter</title><style>.edge>path:hover{stroke-width:8}</style>
<path fill="none" stroke="black" d="M685.31,-461.7C679.52,-446.26 679.3,-427.84 680.63,-412.87"/>
<polygon fill="#0c46f3" stroke="black" points="684.07,-413.57 681.77,-403.23 677.12,-412.75 684.07,-413.57"/>
</g>
<!-- rich&#45;&gt;app_scraper -->
<g id="edge45" class="edge">
<title>rich&#45;&gt;app_scraper</title><style>.edge>path:hover{stroke-width:8}</style>
<path fill="none" stroke="black" d="M685.31,-537.27C671.31,-513.72 236.18,-414.12 210.31,-405.13 206.82,-403.92 203.23,-402.59 199.65,-401.2"/>
<polygon fill="#0c46f3" stroke="black" points="201.04,-397.99 190.46,-397.49 198.43,-404.48 201.04,-397.99"/>
</g>
<!-- rich&#45;&gt;typer_main -->
<g id="edge46" class="edge">
<title>rich&#45;&gt;typer_main</title><style>.edge>path:hover{stroke-width:8}</style>
<path fill="none" stroke="black" d="M685.31,-537.27C660.83,-496.09 734.28,-476.94 784.17,-468.87"/>
<polygon fill="#0c46f3" stroke="black" points="784.49,-472.36 793.85,-467.41 783.44,-465.44 784.49,-472.36"/>
</g>
<!-- typer&#45;&gt;app_cli -->
<g id="edge47" class="edge">
<title>typer&#45;&gt;app_cli</title><style>.edge>path:hover{stroke-width:8}</style>
<path fill="none" stroke="black" d="M794.17,-234.7C727.41,-233.28 558.47,-225.4 528.31,-182"/>
</g>
<!-- typer_colors -->
<g id="node25" class="node">
<title>typer_colors</title><style>.edge>path:hover{stroke-width:8}</style>
<ellipse fill="#8553b6" stroke="black" cx="952.31" cy="-308" rx="39.2" ry="18"/>
<text text-anchor="middle" x="952.31" y="-304.12" font-family="Helvetica,sans-Serif" font-size="10.00" fill="#ffffff">typer.colors</text>
</g>
<!-- typer_colors&#45;&gt;typer -->
<g id="edge48" class="edge">
<title>typer_colors&#45;&gt;typer</title><style>.edge>path:hover{stroke-width:8}</style>
<path fill="none" stroke="black" d="M927.36,-293.67C907.88,-283.26 880.5,-268.63 858.45,-256.85"/>
<polygon fill="#8553b6" stroke="black" points="860.22,-253.83 849.76,-252.2 856.93,-260 860.22,-253.83"/>
</g>
<!-- typer_main&#45;&gt;typer -->
<g id="edge49" class="edge">
<title>typer_main&#45;&gt;typer</title><style>.edge>path:hover{stroke-width:8}</style>
<path fill="none" stroke="black" d="M834.28,-444.4C851.15,-407.39 888.67,-322.73 885.31,-309"/>
<path fill="none" stroke="black" d="M885.31,-307C880.18,-289.22 867.23,-273.56 854.3,-261.58"/>
<polygon fill="blue" stroke="black" points="856.87,-259.18 847.03,-255.26 852.27,-264.46 856.87,-259.18"/>
</g>
<!-- typer_main&#45;&gt;typer_models -->
<g id="edge50" class="edge">
<title>typer_main&#45;&gt;typer_models</title><style>.edge>path:hover{stroke-width:8}</style>
<path fill="none" stroke="black" d="M811.25,-434.69C807.12,-427.29 802.65,-419.26 798.52,-411.85"/>
<polygon fill="blue" stroke="black" points="808.1,-436.23 816.03,-443.26 814.21,-432.82 808.1,-436.23"/>
<polygon fill="blue" stroke="black" points="801.64,-410.26 793.71,-403.23 795.52,-413.66 801.64,-410.26"/>
</g>
<!-- typer_models&#45;&gt;typer -->
<g id="edge51" class="edge">
<title>typer_models&#45;&gt;typer</title><style>.edge>path:hover{stroke-width:8}</style>
<path fill="none" stroke="black" d="M777.81,-365.26C772.7,-346.2 767.14,-314.96 776.31,-290 779.94,-280.12 786.31,-270.82 793.14,-262.86"/>
<polygon fill="blue" stroke="black" points="795.66,-265.29 799.9,-255.58 790.53,-260.53 795.66,-265.29"/>
</g>
<!-- typer_models&#45;&gt;typer_params -->
<g id="edge53" class="edge">
<title>typer_models&#45;&gt;typer_params</title><style>.edge>path:hover{stroke-width:8}</style>
<path fill="none" stroke="black" d="M792.31,-365.13C796.76,-356.52 802.23,-345.93 807.22,-336.28"/>
<polygon fill="blue" stroke="black" points="810.19,-338.14 811.67,-327.65 803.97,-334.93 810.19,-338.14"/>
</g>
<!-- typer_params&#45;&gt;typer -->
<g id="edge54" class="edge">
<title>typer_params&#45;&gt;typer</title><style>.edge>path:hover{stroke-width:8}</style>
<path fill="none" stroke="black" d="M821.31,-289.7C821.31,-282.41 821.31,-273.73 821.31,-265.54"/>
<polygon fill="blue" stroke="black" points="824.81,-265.62 821.31,-255.62 817.81,-265.62 824.81,-265.62"/>
</g>
<!-- yaml -->
<g id="node29" class="node">
<title>yaml</title><style>.edge>path:hover{stroke-width:8}</style>
<ellipse fill="#b6539d" stroke="black" cx="61.31" cy="-538.27" rx="27" ry="18"/>
<text text-anchor="middle" x="61.31" y="-534.39" font-family="Helvetica,sans-Serif" font-size="10.00" fill="#ffffff">yaml</text>
</g>
<!-- yaml&#45;&gt;app_file_loader -->
<g id="edge55" class="edge">
<title>yaml&#45;&gt;app_file_loader</title><style>.edge>path:hover{stroke-width:8}</style>
<path fill="none" stroke="black" d="M61.31,-520.05C61.31,-495.08 61.31,-448.37 61.31,-416.87"/>
<polygon fill="#b6539d" stroke="black" points="64.81,-417.13 61.31,-407.13 57.81,-417.13 64.81,-417.13"/>
</g>
</g>
</svg>
